<svg xmlns="http://www.w3.org/2000/svg" width="35" height="35" viewBox="0 0 35 35"><defs><clipPath id="1vp7a"><path fill="#fff" d="M17.5 0C27.165 0 35 7.834 35 17.5S27.165 35 17.5 35 0 27.165 0 17.5 7.835 0 17.5 0z"/></clipPath></defs><g><g><path fill="none" stroke="#fff" stroke-miterlimit="20" stroke-width="4" d="M17.5 0C27.165 0 35 7.834 35 17.5S27.165 35 17.5 35 0 27.165 0 17.5 7.835 0 17.5 0z" clip-path="url(&quot;#1vp7a&quot;)"/></g><g><path fill="#fff" d="M26 12.425a7.014 7.014 0 0 1-1.888.468c.68-.374 1.198-.965 1.441-1.669-.63.348-1.34.6-2.081.732A3.403 3.403 0 0 0 21.076 11c-1.817 0-3.28 1.359-3.28 3.028 0 .234.031.468.082.694-2.72-.132-5.147-1.332-6.761-3.17-.285.45-.447.967-.447 1.529 0 1.05.579 1.978 1.462 2.522a3.515 3.515 0 0 1-1.482-.385v.038c0 1.472 1.127 2.69 2.63 2.972a3.761 3.761 0 0 1-.864.103c-.213 0-.416-.019-.62-.047.417 1.2 1.625 2.072 3.067 2.1a6.918 6.918 0 0 1-4.071 1.294A7.43 7.43 0 0 1 10 21.64 9.835 9.835 0 0 0 15.036 23c6.03 0 9.33-4.613 9.33-8.616 0-.131 0-.262-.01-.394A6.775 6.775 0 0 0 26 12.425z"/></g></g></svg>